<?xml version="1.0" encoding="utf-8"?>
<!-- Generator: Adobe Illustrator 18.0.0, SVG Export Plug-In . SVG Version: 6.00 Build 0)  -->
<!DOCTYPE svg PUBLIC "-//W3C//DTD SVG 1.1//EN" "http://www.w3.org/Graphics/SVG/1.1/DTD/svg11.dtd">
<svg version="1.1" id="ecommerce_1_" xmlns="http://www.w3.org/2000/svg" xmlns:xlink="http://www.w3.org/1999/xlink" x="0px"
	 y="0px" viewBox="0 0 115 115" style="enable-background:new 0 0 115 115;" xml:space="preserve">
<style type="text/css">
	.st0{fill:#FFEEAD;}
	.st1{fill:#C9B77D;}
	.st2{fill:#99734A;}
	.st3{fill:#FF6F69;}
	.st4{fill:#96CEB4;}
	.st5{fill:none;}
	.st6{fill:#AA9865;}
	.st7{fill:#71A58A;}
	.st8{fill:#FFCC5C;}
	.st9{fill:#825E3B;}
	.st10{fill:#639376;}
	.st11{fill:#E05858;}
	.st12{fill:#C1821E;}
	.st13{fill:#D6A041;}
	.st14{fill:#B28559;}
	.st15{fill:#BF4343;}
	.st16{fill:#D3C089;}
	.st17{fill:#7C5C3C;}
	.st18{fill:#FDCC5C;}
	.st19{fill:#FFFFFF;}
</style>
<g id="payment_processor_1_">
	<g>
		<g>
			<g>
				<path class="st7" d="M111.928,35.373H90.71c-1.69,0-3.072,1.382-3.072,3.072c0,1.689,1.382,3.072,3.072,3.072h21.218
					c1.69,0,3.072-1.382,3.072-3.072C115,36.755,113.618,35.373,111.928,35.373z"/>
			</g>
		</g>
		<g>
			<g>
				<path class="st7" d="M111.928,48.076H90.71c-1.69,0-3.072,1.382-3.072,3.072v0c0,1.689,1.382,3.072,3.072,3.072h21.218
					c1.69,0,3.072-1.382,3.072-3.072v0C115,49.459,113.618,48.076,111.928,48.076z"/>
			</g>
		</g>
		<g>
			<g>
				<path class="st7" d="M111.928,60.78H90.71c-1.69,0-3.072,1.382-3.072,3.072s1.382,3.072,3.072,3.072h21.218
					c1.69,0,3.072-1.382,3.072-3.072S113.618,60.78,111.928,60.78z"/>
			</g>
		</g>
		<g>
			<g>
				<path class="st7" d="M111.928,73.483H90.71c-1.69,0-3.072,1.382-3.072,3.072c0,1.689,1.382,3.072,3.072,3.072h21.218
					c1.69,0,3.072-1.382,3.072-3.072C115,74.866,113.618,73.483,111.928,73.483z"/>
			</g>
		</g>
	</g>
	<g>
		<g>
			<g>
				<path class="st7" d="M24.29,35.373H3.072C1.382,35.373,0,36.755,0,38.445c0,1.689,1.382,3.072,3.072,3.072H24.29
					c1.69,0,3.072-1.382,3.072-3.072C27.362,36.755,25.979,35.373,24.29,35.373z"/>
			</g>
		</g>
		<g>
			<g>
				<path class="st7" d="M24.29,48.076H3.072C1.382,48.076,0,49.459,0,51.148v0c0,1.689,1.382,3.072,3.072,3.072H24.29
					c1.69,0,3.072-1.382,3.072-3.072v0C27.362,49.459,25.979,48.076,24.29,48.076z"/>
			</g>
		</g>
		<g>
			<g>
				<path class="st7" d="M24.29,60.78H3.072C1.382,60.78,0,62.162,0,63.852s1.382,3.072,3.072,3.072H24.29
					c1.69,0,3.072-1.382,3.072-3.072S25.979,60.78,24.29,60.78z"/>
			</g>
		</g>
		<g>
			<g>
				<path class="st7" d="M24.29,73.483H3.072C1.382,73.483,0,74.866,0,76.555c0,1.689,1.382,3.072,3.072,3.072H24.29
					c1.69,0,3.072-1.382,3.072-3.072C27.362,74.866,25.979,73.483,24.29,73.483z"/>
			</g>
		</g>
	</g>
	<g>
		<g>
			<g>
				<path class="st7" d="M38.445,0c-1.69,0-3.072,1.382-3.072,3.072V24.29c0,1.689,1.382,3.072,3.072,3.072
					c1.69,0,3.072-1.383,3.072-3.072V3.072C41.516,1.382,40.134,0,38.445,0z"/>
			</g>
		</g>
		<g>
			<g>
				<path class="st7" d="M51.148,0c-1.69,0-3.072,1.382-3.072,3.072V24.29c0,1.689,1.382,3.072,3.072,3.072
					c1.69,0,3.072-1.383,3.072-3.072V3.072C54.22,1.382,52.838,0,51.148,0z"/>
			</g>
		</g>
		<g>
			<g>
				<path class="st7" d="M63.852,0c-1.69,0-3.072,1.382-3.072,3.072V24.29c0,1.689,1.382,3.072,3.072,3.072
					c1.69,0,3.072-1.383,3.072-3.072V3.072C66.924,1.382,65.541,0,63.852,0z"/>
			</g>
		</g>
		<g>
			<g>
				<path class="st7" d="M76.555,0c-1.689,0-3.072,1.382-3.072,3.072V24.29c0,1.689,1.382,3.072,3.072,3.072
					c1.69,0,3.072-1.383,3.072-3.072V3.072C79.627,1.382,78.245,0,76.555,0z"/>
			</g>
		</g>
	</g>
	<g>
		<g>
			<g>
				<path class="st7" d="M38.445,87.639c-1.69,0-3.072,1.382-3.072,3.072v21.218c0,1.689,1.382,3.072,3.072,3.072
					c1.69,0,3.072-1.383,3.072-3.072V90.71C41.516,89.021,40.134,87.639,38.445,87.639z"/>
			</g>
		</g>
		<g>
			<g>
				<path class="st7" d="M51.148,87.639c-1.69,0-3.072,1.382-3.072,3.072v21.218c0,1.689,1.382,3.072,3.072,3.072
					c1.69,0,3.072-1.383,3.072-3.072V90.71C54.22,89.021,52.838,87.639,51.148,87.639z"/>
			</g>
		</g>
		<g>
			<g>
				<path class="st7" d="M63.852,87.639c-1.69,0-3.072,1.382-3.072,3.072v21.218c0,1.689,1.382,3.072,3.072,3.072
					c1.69,0,3.072-1.383,3.072-3.072V90.71C66.924,89.021,65.541,87.639,63.852,87.639z"/>
			</g>
		</g>
		<g>
			<g>
				<path class="st7" d="M76.555,87.639c-1.689,0-3.072,1.382-3.072,3.072v21.218c0,1.689,1.382,3.072,3.072,3.072
					c1.69,0,3.072-1.383,3.072-3.072V90.71C79.627,89.021,78.245,87.639,76.555,87.639z"/>
			</g>
		</g>
	</g>
	<g>
		<g>
			<path class="st2" d="M85.731,16.958H29.269c-6.076,0-11.047,4.971-11.047,11.047v56.462c0,6.076,4.971,11.047,11.047,11.047
				h56.462c6.076,0,11.047-4.971,11.047-11.047V28.005C96.778,21.929,91.807,16.958,85.731,16.958z"/>
		</g>
	</g>
	<g>
		<g>
			<path class="st7" d="M82.929,20.857H32.071c-5.473,0-9.95,4.478-9.95,9.951v50.857c0,5.472,4.478,9.95,9.95,9.95h50.857
				c5.473,0,9.95-4.478,9.95-9.95V30.807C92.879,25.335,88.401,20.857,82.929,20.857z"/>
		</g>
	</g>
	<g>
		<g>
			<path class="st4" d="M78.197,27.44H36.803c-4.454,0-8.099,3.644-8.099,8.099v41.395c0,4.455,3.644,8.099,8.099,8.099h41.395
				c4.454,0,8.099-3.645,8.099-8.099V35.539C86.296,31.084,82.652,27.44,78.197,27.44z"/>
		</g>
	</g>
	<g>
		<g>
			<path class="st11" d="M76.686,29.542H38.314c-4.129,0-7.508,3.379-7.508,7.508v38.373c0,4.129,3.378,7.508,7.508,7.508h38.373
				c4.129,0,7.508-3.379,7.508-7.508V37.05C84.194,32.92,80.816,29.542,76.686,29.542z"/>
		</g>
	</g>
	<g>
		<g>
			<path class="st3" d="M76.686,29.542H38.314c-4.129,0-7.508,3.378-7.508,7.508v38.373c0,2.127,0.907,4.045,2.342,5.415
				l48.954-48.953C80.732,30.449,78.814,29.542,76.686,29.542z"/>
		</g>
	</g>
	<g>
		<g>
			<circle class="st4" cx="76.951" cy="36.17" r="2.463"/>
		</g>
	</g>
	<g>
		<g>
			<circle class="st4" cx="37.343" cy="76.824" r="2.463"/>
		</g>
	</g>
	<g>
		<g>
			<path class="st8" d="M63.594,54.502c-4.238-3.226-6.326-4.808-6.326-6.326c0-0.443,0.253-0.949,0.823-0.949
				c0.506,0,1.645,2.404,2.087,2.404l8.666-0.443c0.442-0.063,0.695-0.316,0.695-0.695c0-5.567-3.542-10.374-9.361-11.576
				c0-3.732,0-4.112-0.506-4.112h-4.618c-0.253,0-0.442,0.253-0.442,0.57v3.479c-5.884,1.202-9.046,6.262-9.046,11.07
				c0,4.555,2.341,8.287,5.946,10.88c4.997,3.605,6.515,4.997,6.515,6.641c0,0.823-0.57,1.392-1.391,1.392
				c-1.455,0-2.467-1.329-2.91-3.543c-0.127-0.569-0.316-0.695-0.696-0.695l-8.033,0.443c-0.316,0.062-0.505,0.252-0.505,0.569
				c0,7.465,3.479,11.828,10.121,13.031c0,3.795,0,4.238,0.505,4.238h4.555c0.253,0,0.506-0.253,0.506-0.506v-3.669
				c5.883-1.139,9.425-5.44,9.425-11.765C69.603,61.016,67.516,57.474,63.594,54.502z"/>
		</g>
	</g>
	<g>
		<g>
			<g>
				<path class="st0" d="M58.091,47.227c0.506,0,1.644,2.404,2.087,2.404l4.401-0.225l4.432-4.432
					c-1.167-3.976-4.293-7.119-8.833-8.057c0-3.732,0-4.112-0.506-4.112h-4.618c-0.253,0-0.442,0.253-0.442,0.57v3.479
					c-5.883,1.202-9.046,6.262-9.046,11.07c0,4.555,2.341,8.287,5.946,10.881c0.801,0.578,1.483,1.082,2.113,1.556l7.643-7.643
					c-2.662-2.076-4.001-3.335-4.001-4.54C57.268,47.733,57.521,47.227,58.091,47.227z"/>
			</g>
		</g>
		<g>
			<g>
				<path class="st0" d="M44.997,63.041c-0.316,0.062-0.505,0.252-0.505,0.569c0,1.937,0.246,3.656,0.709,5.175l6.09-6.09
					L44.997,63.041z"/>
			</g>
		</g>
	</g>
</g>
</svg>
